<?xml version="1.0" encoding="utf-8"?>
<!-- Generator: Adobe Illustrator 24.1.1, SVG Export Plug-In . SVG Version: 6.00 Build 0)  -->
<svg version="1.1" id="Layer_1" xmlns="http://www.w3.org/2000/svg" xmlns:xlink="http://www.w3.org/1999/xlink" x="0px" y="0px"
	 viewBox="0 0 512 512" style="enable-background:new 0 0 512 512;" xml:space="preserve">
<style type="text/css">
	<!-- .st0{fill:} -->
</style>
<g>
	<path fill='#2F7B2A' d="M409.6,51.2H384V25.6C384,11.5,372.5,0,358.4,0c-14.1,0-25.6,11.5-25.6,25.6v25.6H179.2V25.6
		c0-14.1-11.5-25.6-25.6-25.6C139.5,0,128,11.5,128,25.6v25.6h-25.6C60,51.2,25.6,85.6,25.6,128v307.2c0,42.4,34.4,76.8,76.8,76.8
		h307.2c42.4,0,76.8-34.4,76.8-76.8V128C486.4,85.6,452,51.2,409.6,51.2z M153.6,384c-14.1,0-25.6-11.5-25.6-25.6
		c0-14.1,11.5-25.6,25.6-25.6c14.1,0,25.6,11.5,25.6,25.6C179.2,372.5,167.7,384,153.6,384z M358.4,384H256
		c-14.1,0-25.6-11.5-25.6-25.6c0-14.1,11.5-25.6,25.6-25.6h102.4c14.1,0,25.6,11.5,25.6,25.6C384,372.5,372.5,384,358.4,384z
		 M435.2,230.4H76.8V128c0-14.1,11.5-25.6,25.6-25.6H128V128c0,14.1,11.5,25.6,25.6,25.6c14.1,0,25.6-11.5,25.6-25.6v-25.6h153.6
		V128c0,14.1,11.5,25.6,25.6,25.6c14.1,0,25.6-11.5,25.6-25.6v-25.6h25.6c14.1,0,25.6,11.5,25.6,25.6V230.4z"/>
</g>
</svg>
